<?xml version="1.0" encoding="utf-8"?>
<!-- Generator: Adobe Illustrator 25.4.6, SVG Export Plug-In . SVG Version: 6.00 Build 0)  -->
<svg version="1.1" id="Capa_1" xmlns="http://www.w3.org/2000/svg" xmlns:xlink="http://www.w3.org/1999/xlink" x="0px" y="0px"
	 viewBox="0 0 179.7 164.4" style="enable-background:new 0 0 179.7 164.4;" xml:space="preserve">
<style type="text/css">
	.st0{fill:#D6D6D6;}
	.st1{fill:#9E9E9E;}
	.st2{fill:#FFFFFF;}
	.st3{fill:#373737;}
	.st4{fill:#D1D1D1;}
</style>
<g id="XMLID_00000155828002650827002400000004039279925812354433_">
	<g id="XMLID_00000170994953237505351380000006819795119974059449_">
		<path id="XMLID_00000160174302898257841400000007814511337476270223_" class="st0" d="M163.5,49.5C147.2,68,117.5,73,94.9,60.3
			C71.8,47.3,63.2,24,69.7,2.8c0.5-1.6-1.4-2.9-2.8-1.8c-5.8,4.8-15.5,13.6-20.6,26.5c-2.7,6.8-3.8,16.2-2.5,26
			c1.5-11.3,4.3-26.9,9.2-36.1c-6,16.5-4.1,46.7,19.5,64s50.6,13.8,64.2,7.6c13.6-6.3,19.4-11.7,24.3-19.8
			c-1.5,3.6-3.4,7.4-5.5,11.1c7-9.5,9.8-20.1,10.7-29.6C166.4,49.2,164.5,48.4,163.5,49.5z"/>
		
			<ellipse id="XMLID_00000080892850070593680410000011835525820067711403_" transform="matrix(0.78 -0.6258 0.6258 0.78 -24.3654 62.7706)" class="st1" cx="77.1" cy="66" rx="5.4" ry="2.4"/>
		<path id="XMLID_00000030454851947265383830000014531605094808765610_" d="M89.2,71.2c-0.9,0-1.7-0.2-2-0.4
			c-0.2-0.1-0.3-0.4-0.2-0.6c0.1-0.2,0.4-0.3,0.6-0.2c0.5,0.3,3,0.6,4.2-0.6c1.1-1.1,1.1-2.9,1-3.7c0-0.2,0.1-0.5,0.4-0.5
			c0.2,0,0.5,0.1,0.5,0.4c0,0.1,0.4,2.7-1.2,4.5C91.7,70.9,90.4,71.2,89.2,71.2z"/>
		<path id="XMLID_00000169537554785905385010000006655539667736879029_" d="M72.4,58.3c-2,0-3.8-0.9-4.1-1.1
			c-0.2-0.1-0.3-0.4-0.2-0.6c0.1-0.2,0.4-0.3,0.6-0.2s3.9,2.1,6.4,0.1c1.6-1.3,1.8-4.2,1.6-5.3c0-0.2,0.1-0.5,0.4-0.5
			c0.2,0,0.5,0.1,0.5,0.4c0.2,1.3-0.1,4.6-2,6.1C74.7,58,73.5,58.3,72.4,58.3z"/>
		<path id="XMLID_00000046303014798287015090000016359785506931999113_" d="M69.2,61.8c-0.1,0-0.3-0.1-0.3-0.2
			c-0.2-0.2-0.1-0.5,0.1-0.6c1-0.8,0.9-2,0.9-3.1c0-0.1,0-0.3,0-0.4c0-0.2,0.2-0.4,0.4-0.5c0.2,0,0.4,0.2,0.5,0.4c0,0.1,0,0.2,0,0.4
			c0.1,1.1,0.2,2.7-1.2,3.8C69.4,61.7,69.3,61.8,69.2,61.8z"/>
		<path id="XMLID_00000080927714940429241310000007536465136509180573_" d="M73.5,61.5c0,0-0.8-2.5-1-3.4c-0.1-0.2,0.1-0.5,0.3-0.5
			c0.2-0.1,0.5,0.1,0.5,0.3c0.3,1,1,3.4,1,3.4L73.5,61.5z"/>
		<path id="XMLID_00000117673096145611811420000003944689625880541110_" d="M78.6,58.8c-0.1,0-0.2,0-0.3-0.1c-0.4-0.4-2-1.5-2.5-1.9
			c-0.2-0.1-0.2-0.4-0.1-0.6c0.1-0.2,0.4-0.2,0.6-0.1c0.5,0.3,2.2,1.6,2.6,2c0.2,0.2,0.2,0.4,0,0.6C78.9,58.7,78.8,58.8,78.6,58.8z"
			/>
		<path id="XMLID_00000127007806130627385810000002926356610629297827_" d="M78.5,54.8c-0.6,0-1.1-0.2-1.5-0.5
			c-0.2-0.2-0.2-0.4,0-0.6c0.2-0.2,0.4-0.2,0.6,0c0.3,0.3,0.8,0.4,1.3,0.3c0.3-0.1,0.5-0.2,0.6-0.4s0.4-0.3,0.6-0.2s0.3,0.4,0.2,0.6
			c-0.2,0.5-0.6,0.8-1.2,0.9C78.9,54.8,78.7,54.8,78.5,54.8z"/>
		<path id="XMLID_00000160150378733167394160000005986132147714803380_" class="st2" d="M78.7,81.8l-0.5-1.3
			c-0.3-0.7-0.8-1.2-1.5-1.4l-1.2-0.5l1.3-0.5c0.7-0.3,1.2-0.8,1.5-1.5l0.5-1.3l0.4,1.2c0.3,0.7,0.8,1.3,1.5,1.5l1.3,0.5L80.7,79
			c-0.7,0.3-1.2,0.8-1.5,1.5L78.7,81.8z"/>
		<path id="XMLID_00000070097758834519104930000005043749142248028049_" class="st2" d="M57.8,31.1l-0.5-1.3
			c-0.3-0.7-0.8-1.2-1.5-1.4l-1.2-0.5l1.3-0.5c0.7-0.3,1.2-0.8,1.5-1.5l0.5-1.3l0.4,1.2c0.3,0.7,0.8,1.3,1.5,1.5l1.3,0.5l-1.3,0.5
			c-0.7,0.3-1.2,0.8-1.5,1.5L57.8,31.1z"/>
		<path id="XMLID_00000156583216947404665030000016260229537753291451_" class="st2" d="M154,69.4l-0.5-1.3
			c-0.3-0.7-0.8-1.2-1.5-1.4l-1.2-0.5l1.3-0.5c0.7-0.3,1.2-0.8,1.5-1.5l0.5-1.3l0.4,1.2c0.3,0.7,0.8,1.3,1.5,1.5l1.3,0.5l-1.3,0.5
			c-0.7,0.3-1.2,0.8-1.5,1.5L154,69.4z"/>
		<path id="XMLID_00000092438695848605230600000018227324529029084331_" class="st2" d="M149,63.3c-7.7,6.7-13,9.2-16.4,9.9
			s-12.1,1.9-22.9-3c8.1,1.2,17.5,0.8,21.6,0C135.4,69.4,143,67.3,149,63.3z"/>
		<path id="XMLID_00000162313203209463220290000007795246601070746551_" class="st1" d="M136.8,89c-13.6,6.3-40.6,9.8-64.2-7.6
			S47,33.9,53,17.4c-5,9.3-7.8,24.9-9.2,36.1c2,15.2,9.8,31.4,26.7,40.5c27,14.4,62.3,10,79.9-7.7c1.9-1.9,3.6-4,5.2-6
			c2.1-3.8,4-7.5,5.5-11.1C156.2,77.3,150.4,82.8,136.8,89z"/>
		<path id="XMLID_00000062892815406897730150000016685840794299567037_" class="st3" d="M105.8,103.3c-12.6,0-24.9-3-35.6-8.7
			c-20.3-10.9-25.6-30.3-27-40.9c-1.2-9.4-0.3-19,2.6-26.3C50.8,14.6,60,5.9,66.5,0.5c0.8-0.7,1.9-0.7,2.8-0.1C70.2,1,70.5,2,70.2,3
			c-6.8,22.2,3,44.4,24.9,56.7c22.3,12.5,51.5,8,67.9-10.6l0,0c0.6-0.7,1.6-0.9,2.5-0.6c0.9,0.4,1.4,1.2,1.3,2.2
			c-1.1,11.8-4.7,21.6-10.8,29.9c-1.6,2.1-3.3,4.2-5.2,6.1c-8.8,8.8-21.8,14.5-36.8,16.1C111.3,103.1,108.5,103.3,105.8,103.3z
			 M68,1.2c-0.2,0-0.5,0.1-0.7,0.3c-6.4,5.3-15.5,13.8-20.4,26.3c-2.8,7.1-3.7,16.5-2.5,25.7c1.3,10.4,6.6,29.4,26.4,40.1
			C96.6,107.4,132.1,104,150,86c1.8-1.9,3.6-3.8,5.1-5.9c6-8.1,9.4-17.7,10.6-29.4c0.1-0.5-0.3-0.9-0.6-1s-0.8-0.1-1.2,0.3
			c-8,9.1-19.5,15.2-32.3,17.2c-12.9,2.1-26-0.2-37.1-6.4c-11.2-6.3-19.4-15.2-23.9-25.9C66.3,24.6,65.8,13.5,69,2.7
			c0.2-0.6-0.1-1.1-0.5-1.3C68.5,1.3,68.2,1.2,68,1.2z"/>
	</g>
	<path id="XMLID_00000072961019551134881700000010560674868867756167_" class="st1" d="M169.8,113.9c0,0.2,0,0.3,0,0.5
		c0,7.9-6.4,14.4-14.4,14.4c-1.2,0-2.4-0.2-3.6-0.4c-3.3,7.8-11,13.3-19.9,13.3c-4,0-7.8-1.1-11.1-3.1c-4.5,7.1-12.4,11.8-21.4,11.8
		c-7.5,0-14.3-3.3-18.9-8.5c-4.9,4.8-11.6,7.7-19,7.7c-12,0-22.2-7.8-25.9-18.5c-1.1,0.2-2.3,0.3-3.4,0.3
		c-10.2,0-18.5-8.3-18.5-18.5c0-6.7,3.5-12.5,8.8-15.8c-2.3-3.6-3.7-7.8-3.7-12.4c0-10.5,7.1-19.4,16.7-22.1
		c-16-0.1-29.1,13.1-29.1,29.3c0,4.4,1,8.6,2.7,12.4c-5.2,3.8-8.6,10-8.6,17c0,11.6,9.4,21,21,21c1.2,0,2.5-0.1,3.7-0.3
		c4,11.9,15.3,20.5,28.6,20.5c8.4,0,16-3.5,21.5-9c4.8,6.5,12.5,10.6,21.1,10.6c10.1,0,18.9-5.7,23.3-14.1c3.7,2.4,8.1,3.8,12.9,3.8
		c10,0,18.5-6.2,22.1-14.9c1.4,0.4,2.9,0.7,4.4,0.7c8.3,0,15.1-6.7,15.1-15.1C174.1,120.3,172.5,116.6,169.8,113.9z"/>
	<path id="XMLID_00000011743155365437573790000002607080216124170139_" class="st4" d="M19,84.6c0,4.6,1.3,8.8,3.7,12.4
		c-5.3,3.3-8.8,9.1-8.8,15.8c0,10.2,8.3,18.5,18.5,18.5c1.2,0,2.3-0.1,3.4-0.3c3.6,10.8,13.8,18.5,25.9,18.5c7.4,0,14.1-2.9,19-7.7
		c4.6,5.2,11.4,8.5,18.9,8.5c9,0,16.9-4.7,21.4-11.8c3.2,1.9,7,3.1,11.1,3.1c9,0,16.7-5.5,19.9-13.3c1.1,0.3,2.3,0.4,3.6,0.4
		c7.9,0,14.4-6.4,14.4-14.4c0-0.2,0-0.3,0-0.5c-2.7-2.8-6.6-4.6-10.8-4.6c-0.7,0-1.4,0.1-2,0.1c-2.5-9-10.7-15.7-20.5-15.7
		c-5.9,0-11.3,2.4-15.2,6.4c-1.9-7.7-8.8-13.4-17.1-13.4c-6.5,0-12.2,3.5-15.3,8.8c-2.2-6.8-8.6-11.8-16.1-11.8
		c-3,0-5.7,0.8-8.2,2.1c-3-13.2-14.8-23.2-29-23.2c-0.1,0-0.1,0-0.2,0C26,65.2,19,74.1,19,84.6z"/>
	<g id="XMLID_00000163761278062217090760000001979709867278275259_">
		<path id="XMLID_00000181766488408249931560000016971220303026782392_" class="st1" d="M114.8,15.2l3.4-3.5
			c0.3-0.3,0.9-0.2,1.1,0.2l1.7,4.7l4.2,1.5c0.5,0.2,0.6,0.9,0.1,1.1L121,22l-0.1,4.7c0,0.5-0.6,0.8-1,0.5l-3.9-2.9l-5.1,1.1
			c-0.5,0.1-0.9-0.4-0.7-0.9l1.6-4.2l-2.4-4.2c-0.2-0.4,0.1-1,0.6-1L114.8,15.2z"/>
		<path id="XMLID_00000118364860318890529230000002932704020565033365_" class="st3" d="M120.3,27.7c-0.2,0-0.4-0.1-0.6-0.2
			l-3.7-2.8l-4.9,1c-0.4,0.1-0.7,0-1-0.3c-0.2-0.3-0.3-0.6-0.2-1l1.5-4.1l-2.3-4c-0.2-0.3-0.2-0.7,0-1s0.5-0.5,0.9-0.5l4.7,0.1
			l3.3-3.4c0.2-0.2,0.6-0.4,0.9-0.3c0.3,0.1,0.6,0.3,0.7,0.6l1.6,4.6l4.1,1.5c0.4,0.1,0.6,0.5,0.6,0.8c0,0.4-0.1,0.7-0.5,0.9
			l-4.1,2.6l-0.1,4.5c0,0.4-0.2,0.7-0.6,0.9C120.6,27.7,120.4,27.7,120.3,27.7z M116.1,23.9l4,3c0.1,0.1,0.3,0.1,0.3,0
			c0,0,0.2-0.1,0.2-0.3l0.1-4.9l4.4-2.8c0.1-0.1,0.1-0.2,0.1-0.3c0-0.1,0-0.2-0.2-0.2l-4.4-1.6l-1.8-4.9c0-0.1-0.2-0.2-0.2-0.2
			s-0.2,0-0.3,0.1l-3.5,3.6l-5-0.1l0,0c-0.1,0-0.2,0.1-0.2,0.1s-0.1,0.2,0,0.3l2.5,4.3l-1.6,4.4c-0.1,0.1,0,0.3,0.1,0.3
			c0,0,0.1,0.1,0.3,0.1L116.1,23.9z"/>
	</g>
	
		<ellipse id="XMLID_00000124846973535203930780000005242830533734154151_" transform="matrix(0.479 -0.8778 0.8778 0.479 45.8516 111.1344)" class="st2" cx="116.5" cy="16.9" rx="2" ry="1.1"/>
	<g id="XMLID_00000016036348905948475050000002844774327518872225_">
		<path id="XMLID_00000157271665765008746780000003546104626840636069_" class="st1" d="M23,36.1l2.6-6.6c0.3-0.6,1.1-0.8,1.6-0.3
			l4.9,5.5l6.5-0.2c0.8,0,1.2,0.9,0.8,1.5L35,41.9l2.4,6.4c0.3,0.7-0.4,1.4-1.1,1.2l-6.8-1.9l-6.3,4.2c-0.6,0.4-1.4,0-1.5-0.7
			l-0.2-6.6L16,40.2c-0.6-0.4-0.4-1.3,0.2-1.6L23,36.1z"/>
		<path id="XMLID_00000156564788006160823050000012842856842842181760_" class="st3" d="M22.8,52.5c-0.2,0-0.5-0.1-0.7-0.2
			c-0.5-0.2-0.8-0.7-0.8-1.2l-0.2-6.3l-5.3-4.2c-0.4-0.3-0.6-0.8-0.5-1.4c0.1-0.5,0.4-0.9,0.9-1.1l6.4-2.4l2.6-6.4
			c0.2-0.5,0.6-0.8,1.1-0.9s1,0.1,1.3,0.5l4.7,5.3l6.3-0.2c0.6,0,1.1,0.3,1.3,0.8c0.3,0.5,0.2,1.1-0.1,1.5L35.6,42l2.4,6.1
			c0.2,0.5,0.1,1.1-0.3,1.5c-0.4,0.4-0.9,0.6-1.5,0.4l-6.6-1.8l-6.1,4.1C23.3,52.4,23.1,52.5,22.8,52.5z M26.5,29.5
			C26.4,29.5,26.4,29.5,26.5,29.5c-0.1,0-0.3,0.1-0.4,0.3l-2.7,6.8l-6.8,2.6c-0.2,0.1-0.3,0.3-0.3,0.3c0,0.1,0,0.3,0.2,0.4l5.7,4.5
			l0.2,6.8c0,0.2,0.2,0.3,0.2,0.4c0.1,0,0.2,0.1,0.4,0l6.5-4.3l7,1.9c0.2,0.1,0.4-0.1,0.4-0.1c0.1-0.1,0.2-0.2,0.1-0.4L34.5,42
			l4.5-6.1c0.1-0.2,0.1-0.4,0-0.4c0-0.1-0.2-0.2-0.4-0.2l-6.8,0.2l-5-5.6C26.7,29.5,26.6,29.5,26.5,29.5z"/>
	</g>
	
		<ellipse id="XMLID_00000009556522384353624300000009720712820540592062_" transform="matrix(0.1152 -0.9933 0.9933 0.1152 -13.9471 59.2511)" class="st2" cx="26.3" cy="37.5" rx="2.9" ry="1.6"/>
	<g id="XMLID_00000181087251252083907160000011968872957688459168_">
		<path id="XMLID_00000043452250767451352520000004337380003611639435_" class="st1" d="M162.7,89l2.9-6.5c0.3-0.6,1.1-0.7,1.6-0.2
			l4.7,5.6h6.5c0.8,0,1.2,0.9,0.7,1.5l-4.5,5.7l2.2,6.5c0.2,0.7-0.4,1.4-1.2,1.2l-6.7-2.1l-6.4,4c-0.6,0.4-1.4-0.1-1.4-0.8l0.1-6.6
			l-5.3-4.5c-0.6-0.5-0.4-1.4,0.3-1.6L162.7,89z"/>
		<path id="XMLID_00000075120173843097867190000011430305651339504034_" class="st3" d="M161.9,105.4c-0.2,0-0.5-0.1-0.7-0.2
			c-0.5-0.3-0.7-0.7-0.7-1.3l0.1-6.3l-5.2-4.4c-0.4-0.3-0.6-0.9-0.5-1.4s0.5-0.9,1-1.1l6.4-2.2l2.8-6.3c0.2-0.5,0.6-0.8,1.1-0.8
			c0.5-0.1,1,0.1,1.3,0.5l4.5,5.5h6.3c0.6,0,1.1,0.3,1.3,0.8s0.2,1.1-0.2,1.5l-4.3,5.5l2.1,6.2c0.2,0.5,0,1.1-0.3,1.5
			c-0.4,0.4-0.9,0.5-1.5,0.4l-6.5-2.1l-6.2,3.8C162.5,105.3,162.2,105.4,161.9,105.4z M166.4,82.5L166.4,82.5
			c-0.1,0-0.3,0.1-0.4,0.2l-3,6.7l-6.9,2.3c-0.2,0.1-0.3,0.2-0.3,0.3c0,0.1,0,0.3,0.1,0.4l5.5,4.7l-0.1,6.8c0,0.2,0.1,0.3,0.2,0.4
			c0.1,0,0.2,0.1,0.4,0l6.6-4.1l6.9,2.2c0.2,0.1,0.4-0.1,0.4-0.1c0.1-0.1,0.2-0.2,0.1-0.4l-2.3-6.8l4.7-5.9c0.1-0.2,0.1-0.4,0-0.4
			c0-0.1-0.1-0.2-0.4-0.2h-6.8l-4.8-5.8C166.6,82.5,166.5,82.5,166.4,82.5z"/>
	</g>
	
		<ellipse id="XMLID_00000069363489877089639010000005796659573099207865_" transform="matrix(0.1527 -0.9883 0.9883 0.1527 51.2899 240.6238)" class="st2" cx="166" cy="90.4" rx="2.9" ry="1.6"/>
	<ellipse id="XMLID_00000131354322882805461880000001196936511448493488_" class="st1" cx="64.5" cy="118.9" rx="5.8" ry="2.4"/>
	<ellipse id="XMLID_00000140710707105940628920000016530874707242780343_" class="st1" cx="29.9" cy="121.4" rx="5.8" ry="2.4"/>
	
		<ellipse id="XMLID_00000104686608086286348630000009930554802528979900_" transform="matrix(0.5375 -0.8433 0.8433 0.5375 -22.4624 167.7553)" class="st2" cx="141.7" cy="104.4" rx="5.7" ry="7.4"/>
	
		<ellipse id="XMLID_00000080203512655547138140000015055229402458335105_" transform="matrix(0.7413 -0.6712 0.6712 0.7413 -37.1005 52.4619)" class="st2" cx="49.5" cy="74.4" rx="5.7" ry="7.4"/>
	<path id="XMLID_00000148644514733023719330000011215757249233928073_" d="M46.4,128.5c-2.5,0-4.3-1.4-5.1-2.3
		c-0.2-0.2-0.2-0.5,0-0.6c0.2-0.2,0.5-0.2,0.6,0c0.7,0.8,2.3,2,4.5,2s4.5-2.5,4.8-3.1c0.1-0.2,0.4-0.3,0.6-0.2
		c0.2,0.1,0.3,0.4,0.2,0.6C51.7,125.7,49.1,128.4,46.4,128.5C46.5,128.5,46.4,128.5,46.4,128.5z"/>
	<path id="XMLID_00000136376120524502611940000008082047573078097574_" d="M30.7,113.7c-0.1,0-0.2,0-0.3,0c-4.9-0.2-7-3.4-8.1-4.9
		c-0.1-0.2-0.2-0.4-0.3-0.5c-0.1-0.2-0.1-0.5,0.1-0.6s0.5-0.1,0.6,0.1c0.1,0.1,0.2,0.3,0.4,0.5c1,1.5,2.9,4.3,7.4,4.5
		c3.6,0.1,6.8-2,7.4-5.1c0-0.2,0.3-0.4,0.5-0.3c0.2,0,0.4,0.3,0.3,0.5C38,111.3,34.6,113.7,30.7,113.7z"/>
	<path id="XMLID_00000006682991057803878070000004113547257507986318_" d="M21.6,113.1c-0.1,0-0.3-0.1-0.3-0.2
		c-0.2-0.2-0.1-0.5,0.1-0.6c1.2-1,1.5-1.4,2.4-2.4c0.2-0.2,0.4-0.2,0.6,0s0.2,0.4,0,0.6c-0.9,1-1.3,1.4-2.5,2.5
		C21.8,113,21.7,113.1,21.6,113.1z"/>
	<path id="XMLID_00000002357138629480483290000016745895146187363502_" d="M24.7,115.8c-0.1,0-0.1,0-0.2-0.1
		c-0.2-0.1-0.3-0.4-0.2-0.6c0,0,1.1-2,1.6-3.1c0.1-0.2,0.4-0.3,0.6-0.2c0.2,0.1,0.3,0.4,0.2,0.6c-0.6,1.2-1.6,3.1-1.7,3.2
		C25,115.7,24.8,115.8,24.7,115.8z"/>
	<path id="XMLID_00000079455145960009996270000000046595846881766845_" d="M29.7,117.2L29.7,117.2c-0.3,0-0.5-0.2-0.4-0.5
		c0.1-1.2,0.1-2.8,0.1-3.6c0-0.2,0.2-0.4,0.4-0.5c0.3,0,0.4,0.2,0.5,0.4c0,0.8,0,2.5-0.1,3.7C30.1,117,29.9,117.2,29.7,117.2z"/>
	<path id="XMLID_00000070813436845389131910000014323607748371190447_" d="M36,116c-0.2,0-0.3-0.1-0.4-0.2c-0.6-1.1-1.1-2.1-1.7-3.4
		c-0.1-0.2,0-0.5,0.2-0.6s0.5,0,0.6,0.2c0.6,1.2,1,2.2,1.6,3.3C36.4,115.5,36.3,115.8,36,116C36.2,115.9,36.1,116,36,116z"/>
	<path id="XMLID_00000132058553303317894470000006821974537674173827_" d="M60.4,111.2c-4.1,0-6.4-2.4-7.5-3.7
		c-0.2-0.2-0.3-0.3-0.4-0.4c-0.2-0.2-0.2-0.4,0-0.6s0.4-0.2,0.6,0c0.1,0.1,0.3,0.3,0.5,0.5c1.2,1.3,3.6,3.8,8,3.3
		c3.6-0.4,6.4-3.1,6.5-6.1c0-0.2,0.2-0.4,0.5-0.4c0.2,0,0.4,0.2,0.4,0.5c-0.1,3.5-3.3,6.5-7.3,7C61.2,111.1,60.8,111.2,60.4,111.2z"
		/>
	<path id="XMLID_00000163050355300227696420000013534814719528257699_" d="M53,112c-0.1,0-0.2,0-0.3-0.1c-0.2-0.2-0.2-0.4,0-0.6
		c1.1-1.2,1.3-1.6,2-2.7c0.1-0.2,0.4-0.3,0.6-0.1c0.2,0.1,0.3,0.4,0.1,0.6c-0.7,1.2-1,1.6-2.1,2.8C53.2,111.9,53.1,112,53,112z"/>
	<path id="XMLID_00000032610088790007593220000013076291139825825173_" d="M57,114C57,114,56.9,114,57,114c-0.3,0-0.5-0.2-0.4-0.5
		c0-0.1,0.2-2.2,0.5-3.4c0-0.2,0.3-0.4,0.5-0.3c0.2,0,0.4,0.3,0.3,0.5c-0.2,1.2-0.5,3.3-0.5,3.4C57.4,113.9,57.2,114,57,114z"/>
	<path id="XMLID_00000060746631202068765960000012699969803859062405_" d="M61.7,114.5c-0.2,0-0.4-0.2-0.4-0.4
		c-0.1-1.2-0.3-2.8-0.4-3.6c0-0.2,0.1-0.5,0.3-0.5s0.5,0.1,0.5,0.3c0.2,0.8,0.3,2.4,0.5,3.6C62.1,114.3,62,114.5,61.7,114.5
		L61.7,114.5z"/>
	<path id="XMLID_00000103977776603224064110000013478378283353343138_" d="M67.8,112.4c-0.1,0-0.3-0.1-0.3-0.2
		c-0.8-1-1.4-1.9-2.2-3.1c-0.1-0.2-0.1-0.5,0.1-0.6s0.5-0.1,0.6,0.1c0.7,1.1,1.4,2,2.1,3c0.1,0.2,0.1,0.5-0.1,0.6
		C68,112.4,67.9,112.4,67.8,112.4z"/>
	<path id="XMLID_00000133527770517198012800000004579589627573348237_" class="st2" d="M61.1,147.7l-0.5-1.3
		c-0.3-0.7-0.7-1.4-1.3-1.6l-1.4-0.6l1.4-0.6c0.7-0.3,1.1-0.9,1.4-1.6l0.5-1.3l0.4,1.2c0.3,0.7,0.8,1.5,1.5,1.8l1.3,0.6l-1.5,0.6
		c-0.7,0.3-1.1,1.1-1.4,1.8L61.1,147.7z"/>
	<path id="XMLID_00000098903246975858916700000014898000518019219351_" class="st2" d="M97.7,109.7l-0.5-1.3
		c-0.3-0.7-0.7-1.4-1.3-1.6l-1.4-0.6l1.4-0.6c0.7-0.3,1.1-0.9,1.4-1.6l0.5-1.3l0.4,1.2c0.3,0.7,0.8,1.5,1.5,1.8l1.3,0.6l-1.5,0.6
		c-0.7,0.3-1.1,1.1-1.4,1.8L97.7,109.7z"/>
	<path id="XMLID_00000026874040934432076290000016117994224631187384_" class="st2" d="M131.2,129.9l-0.5-1.3
		c-0.3-0.7-0.7-1.4-1.3-1.6l-1.4-0.6l1.4-0.6c0.7-0.3,1.1-0.9,1.4-1.6l0.5-1.3l0.4,1.2c0.3,0.7,0.8,1.5,1.5,1.8l1.3,0.6l-1.5,0.6
		c-0.7,0.3-1.1,1.1-1.4,1.8L131.2,129.9z"/>
	<path id="XMLID_00000120543466631314366700000015731476203572226707_" class="st3" d="M96.3,164.4c-8.3,0-16.1-3.9-21.2-10.4
		c-5.8,5.7-13.4,8.8-21.4,8.8c-13,0-24.6-8.2-28.9-20.5c-1.1,0.2-2.3,0.3-3.4,0.3C9.6,142.6,0,133,0,121.2c0-6.7,3.2-13.1,8.5-17.1
		c-1.7-3.9-2.6-8-2.6-12.2c0-16.4,13.3-29.8,29.7-29.9h0.2c13.9,0,26,9.7,29.1,23.2c2.4-1.2,5.1-1.9,7.8-1.9
		c7.3,0,13.7,4.5,16.3,11.2c3.3-5.1,9-8.2,15.2-8.2c8.1,0,15.1,5.3,17.3,13c4.1-3.8,9.3-6,14.9-6c9.6,0,18.2,6.4,20.9,15.6
		c0.6-0.1,1.2-0.1,1.7-0.1c4.2,0,8.2,1.7,11.1,4.7l0,0c2.8,2.9,4.4,6.7,4.4,10.8c0,8.6-7,15.5-15.5,15.5c-1.4,0-2.8-0.2-4.2-0.6
		c-3.8,9-12.5,14.8-22.3,14.8c-4.5,0-8.9-1.3-12.7-3.6C115.1,159.1,106.1,164.4,96.3,164.4z M75.1,152.9L75.1,152.9
		c0.2,0,0.3,0.1,0.4,0.2c4.9,6.6,12.5,10.5,20.8,10.5c9.7,0,18.5-5.3,22.9-13.9c0.1-0.1,0.2-0.2,0.3-0.2c0.1,0,0.2,0,0.4,0.1
		c3.8,2.4,8.2,3.7,12.7,3.7c9.6,0,18.1-5.7,21.7-14.6c0.1-0.2,0.3-0.3,0.5-0.3c1.4,0.4,2.8,0.6,4.3,0.6c8.1,0,14.6-6.6,14.6-14.6
		c0-3.8-1.5-7.4-4.1-10.2c-2.8-2.9-6.5-4.4-10.5-4.4c-0.6,0-1.3,0-2,0.1c-0.2,0-0.4-0.1-0.5-0.3c-2.5-9-10.7-15.4-20.1-15.4
		c-5.6,0-10.9,2.2-14.9,6.2c-0.1,0.1-0.3,0.2-0.4,0.1c-0.2,0-0.3-0.2-0.3-0.3c-1.9-7.7-8.8-13-16.7-13c-6.1,0-11.8,3.3-14.9,8.6
		C89.2,95.9,89,96,88.8,96s-0.3-0.1-0.4-0.3c-2.2-6.9-8.5-11.5-15.7-11.5c-2.8,0-5.5,0.7-7.9,2c-0.1,0.1-0.3,0.1-0.4,0
		s-0.2-0.2-0.2-0.3c-2.8-13.3-14.7-23-28.4-23h-0.2C19.7,63,6.8,76,6.8,91.9c0,4.2,0.9,8.3,2.7,12.2c0.1,0.2,0,0.4-0.1,0.5
		c-5.3,3.9-8.5,10.1-8.5,16.6c0,11.3,9.2,20.5,20.5,20.5c1.2,0,2.4-0.1,3.6-0.3c0.2,0,0.4,0.1,0.5,0.3c4.1,12.1,15.4,20.2,28.1,20.2
		c8,0,15.5-3.2,21.2-8.9C74.9,153,75,152.9,75.1,152.9z"/>
</g>
</svg>
